<svg width="25" height="24" viewBox="0 0 25 24" fill="none" xmlns="http://www.w3.org/2000/svg">
<g id="icon / outlined / other / book / book open">
<path id="Vector" d="M2.9043 3H8.77195C9.80942 3 10.8044 3.42143 11.538 4.17157C12.2716 4.92172 12.6837 5.93913 12.6837 7V21C12.6837 20.2044 12.3746 19.4413 11.8244 18.8787C11.2742 18.3161 10.528 18 9.74989 18H2.9043V3Z" stroke="#2E40B5" stroke-width="2" stroke-linecap="round" stroke-linejoin="round"/>
<path id="Vector_2" d="M22.4633 3H16.5956C15.5581 3 14.5632 3.42143 13.8296 4.17157C13.096 4.92172 12.6838 5.93913 12.6838 7V21C12.6838 20.2044 12.9929 19.4413 13.5431 18.8787C14.0933 18.3161 14.8396 18 15.6177 18H22.4633V3Z" stroke="#2E40B5" stroke-width="2" stroke-linecap="round" stroke-linejoin="round"/>
</g>
</svg>
