<svg width="182" height="32" viewBox="0 0 182 32" fill="none" xmlns="http://www.w3.org/2000/svg">
<path d="M10.6773 26.3C9.32734 26.3 8.06901 26.0833 6.90234 25.65C5.75234 25.2 4.75234 24.5667 3.90234 23.75C3.05234 22.9333 2.38567 21.975 1.90234 20.875C1.43567 19.775 1.20234 18.5667 1.20234 17.25C1.20234 15.9333 1.43567 14.725 1.90234 13.625C2.38567 12.525 3.05234 11.5667 3.90234 10.75C4.76901 9.93333 5.77734 9.30833 6.92734 8.875C8.07734 8.425 9.33567 8.2 10.7023 8.2C12.219 8.2 13.5857 8.46667 14.8023 9C16.0357 9.51667 17.069 10.2833 17.9023 11.3L15.3023 13.7C14.7023 13.0167 14.0357 12.5083 13.3023 12.175C12.569 11.825 11.769 11.65 10.9023 11.65C10.0857 11.65 9.33567 11.7833 8.65234 12.05C7.96901 12.3167 7.37734 12.7 6.87734 13.2C6.37734 13.7 5.98567 14.2917 5.70234 14.975C5.43567 15.6583 5.30234 16.4167 5.30234 17.25C5.30234 18.0833 5.43567 18.8417 5.70234 19.525C5.98567 20.2083 6.37734 20.8 6.87734 21.3C7.37734 21.8 7.96901 22.1833 8.65234 22.45C9.33567 22.7167 10.0857 22.85 10.9023 22.85C11.769 22.85 12.569 22.6833 13.3023 22.35C14.0357 22 14.7023 21.475 15.3023 20.775L17.9023 23.175C17.069 24.1917 16.0357 24.9667 14.8023 25.5C13.5857 26.0333 12.2107 26.3 10.6773 26.3ZM20.8373 26V8.5H24.8873V26H20.8373ZM32.8654 26V11.8H27.2654V8.5H42.5154V11.8H36.9154V26H32.8654ZM48.9027 26V18.85L49.8277 21.3L42.1277 8.5H46.4277L52.3277 18.325H49.8527L55.7777 8.5H59.7527L52.0527 21.3L52.9527 18.85V26H48.9027Z" fill="#2E40B5"/>
<path d="M61.6473 26V8.5H69.2223C70.7889 8.5 72.1389 8.75833 73.2723 9.275C74.4056 9.775 75.2806 10.5 75.8973 11.45C76.5139 12.4 76.8223 13.5333 76.8223 14.85C76.8223 16.15 76.5139 17.275 75.8973 18.225C75.2806 19.175 74.4056 19.9083 73.2723 20.425C72.1389 20.925 70.7889 21.175 69.2223 21.175H63.8973L65.6973 19.35V26H61.6473ZM65.6973 19.8L63.8973 17.875H68.9973C70.2473 17.875 71.1806 17.6083 71.7973 17.075C72.4139 16.5417 72.7223 15.8 72.7223 14.85C72.7223 13.8833 72.4139 13.1333 71.7973 12.6C71.1806 12.0667 70.2473 11.8 68.9973 11.8H63.8973L65.6973 9.875V19.8ZM87.591 26.3C85.1077 26.3 83.166 25.6083 81.766 24.225C80.366 22.8417 79.666 20.8667 79.666 18.3V8.5H83.716V18.15C83.716 19.8167 84.0577 21.0167 84.741 21.75C85.4243 22.4833 86.3827 22.85 87.616 22.85C88.8493 22.85 89.8077 22.4833 90.491 21.75C91.1743 21.0167 91.516 19.8167 91.516 18.15V8.5H95.516V18.3C95.516 20.8667 94.816 22.8417 93.416 24.225C92.016 25.6083 90.0743 26.3 87.591 26.3ZM99.7182 26V8.5H103.768V22.7H112.543V26H99.7182ZM120.683 26.3C119.283 26.3 117.941 26.1167 116.658 25.75C115.374 25.3667 114.341 24.875 113.558 24.275L114.933 21.225C115.683 21.7583 116.566 22.2 117.583 22.55C118.616 22.8833 119.658 23.05 120.708 23.05C121.508 23.05 122.149 22.975 122.633 22.825C123.133 22.6583 123.499 22.4333 123.733 22.15C123.966 21.8667 124.083 21.5417 124.083 21.175C124.083 20.7083 123.899 20.3417 123.533 20.075C123.166 19.7917 122.683 19.5667 122.083 19.4C121.483 19.2167 120.816 19.05 120.083 18.9C119.366 18.7333 118.641 18.5333 117.908 18.3C117.191 18.0667 116.533 17.7667 115.933 17.4C115.333 17.0333 114.841 16.55 114.458 15.95C114.091 15.35 113.908 14.5833 113.908 13.65C113.908 12.65 114.174 11.7417 114.708 10.925C115.258 10.0917 116.074 9.43333 117.158 8.95C118.258 8.45 119.633 8.2 121.283 8.2C122.383 8.2 123.466 8.33333 124.533 8.6C125.599 8.85 126.541 9.23333 127.358 9.75L126.108 12.825C125.291 12.3583 124.474 12.0167 123.658 11.8C122.841 11.5667 122.041 11.45 121.258 11.45C120.474 11.45 119.833 11.5417 119.333 11.725C118.833 11.9083 118.474 12.15 118.258 12.45C118.041 12.7333 117.933 13.0667 117.933 13.45C117.933 13.9 118.116 14.2667 118.483 14.55C118.849 14.8167 119.333 15.0333 119.933 15.2C120.533 15.3667 121.191 15.5333 121.908 15.7C122.641 15.8667 123.366 16.0583 124.083 16.275C124.816 16.4917 125.483 16.7833 126.083 17.15C126.683 17.5167 127.166 18 127.533 18.6C127.916 19.2 128.108 19.9583 128.108 20.875C128.108 21.8583 127.833 22.7583 127.283 23.575C126.733 24.3917 125.908 25.05 124.808 25.55C123.724 26.05 122.349 26.3 120.683 26.3ZM134.8 15.55H143.225V18.7H134.8V15.55ZM135.1 22.75H144.625V26H131.075V8.5H144.3V11.75H135.1V22.75Z" fill="#302B27"/>
<path d="M152.901 16L157.269 6.2H159.509L163.891 16H161.511L157.927 7.348H158.823L155.225 16H152.901ZM155.085 13.9L155.687 12.178H160.727L161.343 13.9H155.085ZM165.023 16V7.95H168.691C169.438 7.95 170.077 8.07133 170.609 8.314C171.151 8.54733 171.571 8.88333 171.869 9.322C172.168 9.76067 172.317 10.2927 172.317 10.918C172.317 11.5247 172.168 12.052 171.869 12.5C171.571 12.948 171.151 13.2887 170.609 13.522C170.077 13.7553 169.438 13.872 168.691 13.872H166.241L167.235 12.906V16H165.023ZM167.235 13.158L166.423 12.164H168.537C169.051 12.164 169.438 12.0567 169.699 11.842C169.961 11.618 170.091 11.31 170.091 10.918C170.091 10.5167 169.961 10.2087 169.699 9.994C169.438 9.77933 169.051 9.672 168.537 9.672H166.423L167.235 8.678V13.158ZM174.137 16V7.95H177.805C178.552 7.95 179.191 8.07133 179.723 8.314C180.265 8.54733 180.685 8.88333 180.983 9.322C181.282 9.76067 181.431 10.2927 181.431 10.918C181.431 11.5247 181.282 12.052 180.983 12.5C180.685 12.948 180.265 13.2887 179.723 13.522C179.191 13.7553 178.552 13.872 177.805 13.872H175.355L176.349 12.906V16H174.137ZM176.349 13.158L175.537 12.164H177.651C178.165 12.164 178.552 12.0567 178.813 11.842C179.075 11.618 179.205 11.31 179.205 10.918C179.205 10.5167 179.075 10.2087 178.813 9.994C178.552 9.77933 178.165 9.672 177.651 9.672H175.537L176.349 8.678V13.158Z" fill="#333333"/>
</svg>
